<svg xmlns="http://www.w3.org/2000/svg" xmlns:xlink="http://www.w3.org/1999/xlink" viewBox="0,0,256,256" width="25px" height="25px" fill-rule="nonzero"><g fill="#ffffff" fill-rule="nonzero" stroke="none" stroke-width="1" stroke-linecap="butt" stroke-linejoin="miter" stroke-miterlimit="10" stroke-dasharray="" stroke-dashoffset="0" font-family="none" font-weight="none" font-size="none" text-anchor="none" style="mix-blend-mode: normal"><g transform="scale(5.12,5.12)"><path d="M17.72266,10c-4.266,0 -7.72266,3.45666 -7.72266,7.72266v14.55469c0,4.266 3.45666,7.72266 7.72266,7.72266h14.55469c4.266,0 7.72266,-3.45666 7.72266,-7.72266v-14.50781c0,-4.291 -3.47853,-7.76953 -7.76953,-7.76953zM17,11h16c3.314,0 6,2.686 6,6v16c0,3.314 -2.686,6 -6,6h-16c-3.314,0 -6,-2.686 -6,-6v-16c0,-3.314 2.686,-6 6,-6zM20.71484,19.44336c-3.069,0 -5.55859,2.48764 -5.55859,5.55664c0,3.069 2.48959,5.55664 5.55859,5.55664c3.069,0 5.55664,-2.48764 5.55664,-5.55664c0,-3.069 -2.48764,-5.55664 -5.55664,-5.55664zM29.57617,19.71094c-1.52,0 -2.75,2.36806 -2.75,5.28906c0,2.921 1.231,5.28906 2.75,5.28906c1.519,0 2.75195,-2.36806 2.75195,-5.28906c0,-2.921 -1.23195,-5.28906 -2.75195,-5.28906zM33.84961,20.27539c-0.529,0 -0.95703,2.11561 -0.95703,4.72461c0,2.609 0.42903,4.72461 0.95703,4.72461c0.528,0 0.95703,-2.11561 0.95703,-4.72461c0,-2.609 -0.42903,-4.72461 -0.95703,-4.72461z"></path></g></g></svg>